<svg xmlns="http://www.w3.org/2000/svg" viewBox="0 0 338.19 210.57"><defs><style>.cls-1{fill:#fff;}</style></defs><g id="Layer_2" data-name="Layer 2"><g id="Layer_1-2" data-name="Layer 1"><path class="cls-1" d="M90.51,192.48H86.44v13.88H83.1V192.48h-4v-2.81H90.51Z"/><path class="cls-1" d="M106.8,206.36h-3.31v-7.14h-4.9v7.14H95.26V189.67h3.33v6.75h4.9v-6.75h3.31Z"/><path class="cls-1" d="M120.82,199.14h-5.18v4.43h6.13v2.79h-9.45V189.67h9.43v2.81h-6.11v3.94h5.18Z"/><path class="cls-1" d="M134.71,206.36V189.67h5.08a5.84,5.84,0,0,1,3.92,1.16,4.31,4.31,0,0,1,1.34,3.42,4.22,4.22,0,0,1-.55,2.18,3.31,3.31,0,0,1-1.52,1.35,2.85,2.85,0,0,1,1.71,1.29,4.44,4.44,0,0,1,.6,2.39,4.76,4.76,0,0,1-1.32,3.66,5.36,5.36,0,0,1-3.82,1.24Zm3.32-9.71h1.73c1.3,0,2-.68,2-2.05a2.39,2.39,0,0,0-.46-1.63,1.9,1.9,0,0,0-1.47-.49H138Zm0,2.46v4.46h2.12a1.65,1.65,0,0,0,1.36-.57,2.41,2.41,0,0,0,.47-1.59c0-1.5-.54-2.27-1.61-2.3Z"/><path class="cls-1" d="M159,199.14h-5.18v4.43H160v2.79h-9.45V189.67H160v2.81h-6.11v3.94H159Z"/><path class="cls-1" d="M171.7,202a2.08,2.08,0,0,0-.52-1.54,5.68,5.68,0,0,0-1.87-1.08,8.83,8.83,0,0,1-3.56-2.23,4.53,4.53,0,0,1-1.08-3,4.26,4.26,0,0,1,1.47-3.39,6.05,6.05,0,0,1,6.45-.63,4.48,4.48,0,0,1,1.83,1.83,5.62,5.62,0,0,1,.64,2.68h-3.32a2.78,2.78,0,0,0-.49-1.78,1.72,1.72,0,0,0-1.42-.62,1.74,1.74,0,0,0-1.35.53,1.93,1.93,0,0,0-.49,1.4,1.73,1.73,0,0,0,.54,1.24,6.44,6.44,0,0,0,1.93,1.16,8.24,8.24,0,0,1,3.49,2.16A4.87,4.87,0,0,1,175,202a4.32,4.32,0,0,1-1.36,3.4,5.35,5.35,0,0,1-3.72,1.23,6.41,6.41,0,0,1-2.91-.66A5,5,0,0,1,165,204a5.61,5.61,0,0,1-.74-2.92h3.34a3.24,3.24,0,0,0,.55,2.1,2.27,2.27,0,0,0,1.81.65C171.12,203.85,171.7,203.23,171.7,202Z"/><path class="cls-1" d="M190.75,192.48h-4.07v13.88h-3.33V192.48h-4v-2.81h11.4Z"/><path class="cls-1" d="M193.39,210.57l-1.71-.91.43-.81a6,6,0,0,0,.75-2.73v-2.58h2.78v2.31a6.22,6.22,0,0,1-.62,2.52A6.39,6.39,0,0,1,193.39,210.57Z"/><path class="cls-1" d="M217.81,199.14h-5.18v4.43h6.13v2.79h-9.45V189.67h9.43v2.81h-6.11v3.94h5.18Z"/><path class="cls-1" d="M228.87,201.78l2.77-12.11h3.71l-4.75,16.69h-3.45l-4.72-16.69h3.69Z"/><path class="cls-1" d="M246.75,203h-4.53l-.88,3.41h-3.52L243,189.67h3l5.17,16.69h-3.54Zm-3.81-2.81H246l-1.54-5.95Z"/><path class="cls-1" d="M255.59,204.79a1.75,1.75,0,0,1,.49-1.28,1.84,1.84,0,0,1,2.52,0,1.78,1.78,0,0,1,.48,1.28,1.74,1.74,0,0,1-.48,1.26,1.68,1.68,0,0,1-1.26.5,1.7,1.7,0,0,1-1.27-.5A1.74,1.74,0,0,1,255.59,204.79Zm3.09-3.56H256l-.37-11.56h3.4Z"/><path class="cls-1" d="M169.09,0c-30.5,0-55.22,25.08-55.22,56s24.72,56,55.22,56,55.23-25.08,55.23-56S199.59,0,169.09,0Zm32,78.4c-.74,4.24-3.18,7.45-7.8,7.57s-9.49.28-14.21.7a79.88,79.88,0,0,0-8.48,1.55c-2.36.47-3.73-.1-4.82-2.29a149.58,149.58,0,0,0-13-20.65c-2.59-3.54-4.8-7.37-7.15-11.09-.4-.63-.69-1.13-1.6-.9s-1.52-.44-1.47-1.59a2,2,0,0,0-1.24-2.37c-.91-.46-1.47-1.85-1.92-2.93-.8-1.93-1.45-3.92-2.06-5.92-.78-2.59-.06-3.77,2.38-4.78,1.83-.75,3.54-1.78,5.31-2.68,2.42-1.23,4.82-2.49,7.26-3.67,2.07-1,4.17-1.94,6.29-2.85s4.46-1.82,6.7-2.71c1-.41,1.65.06,2.1,1,.74,1.53,1.54,3,2.32,4.55l.24-.11c2.77,6.39,5.52,12.78,8.32,19.16,1,2.3,2.13,4.55,3.18,6.83A32.42,32.42,0,0,0,183,58.81,11,11,0,0,0,185.61,62q5.44,3.89,11.11,7.45C200.07,71.53,201.75,74.45,201.06,78.4Z"/><path class="cls-1" d="M11,140.11c1.19,1.13,2,1.64,6,4.35,5,3.28,6.35,4.55,7.78,6.13a12.29,12.29,0,0,1,3,8.08c0,7.51-6,12.24-14.38,12.24A30.18,30.18,0,0,1,2.09,169a1.31,1.31,0,0,1-.83-1c-.55-3-1-6.68-1.25-9.82a1.32,1.32,0,0,1,1-1.41l.05,0a1.31,1.31,0,0,1,1.51.71,34,34,0,0,0,3,5.39c2.11,2.91,4.48,4,8.65,4s6.41-2.27,6.41-5.93c0-4.1-3.11-6.31-8.65-10.16s-6.85-5.18-8.34-7.07a11.32,11.32,0,0,1-2.37-7.39c0-6.94,5.67-11.68,13.82-11.68a24.68,24.68,0,0,1,11.05,2.51,1.31,1.31,0,0,1,.76,1.13C27,130,27,131.56,27,133s0,2.63-.06,4.08a1.32,1.32,0,0,1-1.2,1.26h0a1.29,1.29,0,0,1-1.33-.83,22.09,22.09,0,0,0-3.26-6,7.51,7.51,0,0,0-6.1-3.09c-3.92,0-6.47,2.9-6.47,6.81C8.56,137.08,9.24,138.34,11,140.11Z"/><path class="cls-1" d="M53.81,138.47c0-2.28,0-4.55-.19-6.51-.19-2.52-.56-3-3.49-3a8,8,0,0,0-3.23.51,8.4,8.4,0,0,0-3.43,2.08A12,12,0,0,0,40.8,136a1,1,0,0,1-1.16.65l-.61-.12a1.05,1.05,0,0,1-.85-1.11c.21-3.26.42-5.89.66-8.87a1.06,1.06,0,0,1,1.12-1c2,.11,3.94.11,6.13.11H69.43c2.19,0,4.1,0,6.13-.11a1,1,0,0,1,1.11,1c.25,3,.46,5.61.67,8.87a1.06,1.06,0,0,1-.86,1.11l-.6.12a1,1,0,0,1-1.16-.65,12,12,0,0,0-2.68-4.5,8.36,8.36,0,0,0-3.42-2.08,8,8,0,0,0-3.24-.51c-2.92,0-3.3.51-3.48,3-.19,2-.19,4.23-.19,6.51v17.67c0,2.21,0,4.67.12,6.82.18,2.54.5,3.92,2.93,4.91a1,1,0,0,1,.66,1.09h0a1,1,0,0,1-1.09.95c-2.69-.13-5.22-.13-6.6-.13s-3.87,0-6.55.13a1.05,1.05,0,0,1-1.09-.95h0a1.06,1.06,0,0,1,.66-1.09c2.43-1,2.76-2.37,2.93-4.91.13-2.15.13-4.61.13-6.82Z"/><path class="cls-1" d="M99.67,124.58h2a1,1,0,0,1,1,.7l11,30.86c.74,2,1.62,4.67,2.61,6.75,1.18,2.46,2,3.88,3.49,4.93a1,1,0,0,1,.43,1l0,.18a1.06,1.06,0,0,1-1.1.95c-2.64-.13-4.29-.13-5.85-.13-2,0-3.63,0-6.1.13a1.06,1.06,0,0,1-1.1-.95v-.1a1.09,1.09,0,0,1,.55-1,2.15,2.15,0,0,0,1.37-2.08c0-1.27-.62-3.46-2.31-8.44a1,1,0,0,0-1-.72H93a1.05,1.05,0,0,0-1,.73c-1.42,4.4-1.81,6.31-1.81,8.05,0,1.24.54,1.93,1.88,2.5a1.09,1.09,0,0,1,.65,1.09h0a1.06,1.06,0,0,1-1.1,1c-2-.12-3.71-.12-5-.12s-2.12,0-3.6.1a1.05,1.05,0,0,1-1.12-.94v-.18a1,1,0,0,1,.42-.95c1.37-1,2.19-2.23,3.31-4.79.87-2,1.93-4.8,2.61-6.88l10.53-30.85A1,1,0,0,1,99.67,124.58ZM95,152.73h7.53a1.05,1.05,0,0,0,1-1.41l-3.85-11.14a1,1,0,0,0-2,0L94,151.34A1,1,0,0,0,95,152.73Z"/><path class="cls-1" d="M167.89,156.14c0,2.21,0,4.67.13,6.82.17,2.5.49,3.88,2.38,4.87a1.12,1.12,0,0,1,.59,1.09h0a1.1,1.1,0,0,1-1.13,1c-2.55-.13-4.51-.13-5.89-.13s-3.38,0-5.94.13a1.08,1.08,0,0,1-1.13-1h0a1.09,1.09,0,0,1,.59-1.09c1.89-1,2.21-2.37,2.38-4.87.12-2.15.12-4.61.12-6.82v-6.35a1.1,1.1,0,0,0-1.09-1.1H142.4a1.09,1.09,0,0,0-1.08,1.1v6.35c0,2.21,0,4.67.12,6.82.17,2.5.49,3.88,2.38,4.87a1.09,1.09,0,0,1,.59,1.09h0a1.09,1.09,0,0,1-1.13,1c-2.55-.13-4.51-.13-5.88-.13s-3.39,0-6,.13a1.1,1.1,0,0,1-1.13-1h0a1.09,1.09,0,0,1,.59-1.09c1.89-1,2.21-2.37,2.38-4.87.12-2.15.12-4.61.12-6.82V139.35c0-2.21,0-4.67-.12-6.82-.17-2.5-.49-3.88-2.38-4.87a1.09,1.09,0,0,1-.59-1.09h0a1.1,1.1,0,0,1,1.13-1c2.56.13,4.57.13,6,.13s3.33,0,5.88-.13a1.1,1.1,0,0,1,1.13,1h0a1.09,1.09,0,0,1-.59,1.09c-1.89,1-2.21,2.37-2.38,4.87-.12,2.15-.12,4.61-.12,6.82v4.39a1.09,1.09,0,0,0,1.08,1.1h16.5a1.09,1.09,0,0,0,1.09-1.1v-4.39c0-2.21,0-4.67-.12-6.82-.17-2.5-.49-3.88-2.38-4.87a1.09,1.09,0,0,1-.59-1.09h0a1.08,1.08,0,0,1,1.13-1c2.56.13,4.57.13,5.94.13s3.34,0,5.89-.13a1.1,1.1,0,0,1,1.13,1h0a1.12,1.12,0,0,1-.59,1.09c-1.89,1-2.21,2.37-2.38,4.87-.13,2.15-.13,4.61-.13,6.82Z"/><path class="cls-1" d="M193.54,156.14c0,2.21,0,4.67.12,6.82.17,2.5.49,3.88,2.38,4.87a1.09,1.09,0,0,1,.59,1.09h0a1.09,1.09,0,0,1-1.13,1c-2.55-.13-4.51-.13-5.88-.13s-3.39,0-6,.13a1.1,1.1,0,0,1-1.13-1h0a1.09,1.09,0,0,1,.59-1.09c1.89-1,2.21-2.37,2.38-4.87.12-2.15.12-4.61.12-6.82V139.35c0-2.21,0-4.67-.12-6.82-.17-2.5-.49-3.88-2.38-4.87a1.09,1.09,0,0,1-.59-1.09h0a1.1,1.1,0,0,1,1.13-1c2.56.13,4.57.13,6,.13s3.33,0,5.88-.13a1.09,1.09,0,0,1,1.13,1h0a1.09,1.09,0,0,1-.59,1.09c-1.89,1-2.21,2.37-2.38,4.87-.12,2.15-.12,4.61-.12,6.82Zm9.1-12.56a1.11,1.11,0,0,0-.11,1.35c4.55,7,8.72,12.54,13.29,18.34,2.4,3,4,4.38,5.61,5.27a1.1,1.1,0,0,1,.55,1v.11a1.09,1.09,0,0,1-.8,1.07,10.1,10.1,0,0,1-2.37.23c-5,0-8.59-1.89-12.26-6.5a149.86,149.86,0,0,1-11.88-16.62,1.15,1.15,0,0,1,.14-1.36l6.51-6.77c5.72-5.93,6.6-8.2,6.6-9.72a2.4,2.4,0,0,0-1.43-2.26,1.1,1.1,0,0,1-.55-1.07v0a1.09,1.09,0,0,1,1.13-1c2.29.12,5,.12,6.38.12s2.38,0,3.87-.1a1.09,1.09,0,0,1,1.16,1l0,.15a1.16,1.16,0,0,1-.42,1,66.84,66.84,0,0,0-5.06,4.93c-2.12,2.14-5.29,5.3-6.79,6.94Z"/><path class="cls-1" d="M242.58,156.14c0,2.21,0,4.67.13,6.82.17,2.5.49,3.88,2.38,4.87a1.12,1.12,0,0,1,.59,1.09h0a1.1,1.1,0,0,1-1.13,1c-2.55-.13-4.51-.13-5.89-.13s-3.38,0-5.94.13a1.08,1.08,0,0,1-1.13-1h0a1.09,1.09,0,0,1,.59-1.09c1.89-1,2.21-2.37,2.38-4.87.12-2.15.12-4.61.12-6.82V139.35c0-2.21,0-4.67-.12-6.82-.17-2.5-.49-3.88-2.38-4.87a1.09,1.09,0,0,1-.59-1.09h0a1.08,1.08,0,0,1,1.13-1c2.56.13,4.57.13,5.94.13s3.34,0,5.89-.13a1.1,1.1,0,0,1,1.13,1h0a1.11,1.11,0,0,1-.59,1.09c-1.89,1-2.21,2.37-2.38,4.87-.13,2.15-.13,4.61-.13,6.82Z"/><path class="cls-1" d="M296.73,160.05c0,2.78,0,6.4.15,9.51a1.12,1.12,0,0,1-.76,1.11l-1.61.52a1.07,1.07,0,0,1-1.17-.35l-27-33.53a1.08,1.08,0,0,0-1.92.7V156.2c0,2.21,0,4.67.12,6.82.17,2.51.49,3.88,2.38,4.87a1.1,1.1,0,0,1,.59,1.09h0a1.09,1.09,0,0,1-1.14,1c-1.66-.09-2.7-.13-4-.13s-2.23,0-3.94.13a1.09,1.09,0,0,1-1.14-1h0a1.1,1.1,0,0,1,.59-1.09c1.89-1,2.21-2.36,2.38-4.87.12-2.15.12-4.61.12-6.82V139.73c0-2.21,0-4.86-.12-6.95-.17-2.68-.44-4.08-2.39-5.11a1.11,1.11,0,0,1-.58-1.09v0a1.08,1.08,0,0,1,1.12-1c2.07.08,5.42.13,7.88.13a1.09,1.09,0,0,1,.83.4l23.71,28.78a1.09,1.09,0,0,0,1.92-.71V139.35c0-2.21,0-4.67-.13-6.82-.17-2.5-.49-3.88-2.37-4.87a1.11,1.11,0,0,1-.6-1.09h0a1.1,1.1,0,0,1,1.14-1c1.7.09,2.57.13,3.89.13s2.58,0,4.07-.12a1.09,1.09,0,0,1,1.14,1h0a1.12,1.12,0,0,1-.59,1.09c-1.89,1-2.21,2.37-2.38,4.87-.13,2.15-.13,4.61-.13,6.82Z"/><path class="cls-1" d="M321.44,140.11c1.19,1.13,2,1.64,6,4.35,5,3.28,6.35,4.55,7.78,6.13a12.29,12.29,0,0,1,3,8.08c0,7.51-6,12.24-14.38,12.24A30.18,30.18,0,0,1,312.55,169a1.31,1.31,0,0,1-.83-1c-.55-3-1-6.68-1.25-9.82a1.32,1.32,0,0,1,1-1.41l.05,0a1.31,1.31,0,0,1,1.51.71,34,34,0,0,0,3,5.39c2.12,2.91,4.48,4,8.65,4s6.41-2.27,6.41-5.93c0-4.1-3.11-6.31-8.65-10.16s-6.85-5.18-8.34-7.07a11.32,11.32,0,0,1-2.37-7.39c0-6.94,5.67-11.68,13.82-11.68a24.75,24.75,0,0,1,11.06,2.51,1.32,1.32,0,0,1,.75,1.13c.08,1.66.08,3.22.08,4.63s0,2.63-.06,4.08a1.32,1.32,0,0,1-1.2,1.26h0a1.3,1.3,0,0,1-1.33-.83,22.09,22.09,0,0,0-3.26-6,7.51,7.51,0,0,0-6.1-3.09c-3.92,0-6.47,2.9-6.47,6.81C319,137.08,319.7,138.34,321.44,140.11Z"/></g></g></svg>