<svg xmlns="http://www.w3.org/2000/svg" viewBox="0 0 126.59 78.82"><defs><style>.cls-1{fill:#343434;}.cls-2{fill:#f04c3c;}</style></defs><g id="Layer_2" data-name="Layer 2"><g id="Layer_1-2" data-name="Layer 1"><path class="cls-1" d="M33.88,72.05H32.35v5.19H31.11V72.05h-1.5V71h4.27Z"/><path class="cls-1" d="M40,77.24H38.74V74.57H36.9v2.67H35.66V71H36.9v2.52h1.84V71H40Z"/><path class="cls-1" d="M45.22,74.54H43.29V76.2h2.29v1H42V71h3.53v1H43.29v1.47h1.93Z"/><path class="cls-1" d="M50.42,77.24V71h1.91a2.16,2.16,0,0,1,1.46.43,1.59,1.59,0,0,1,.5,1.28,1.63,1.63,0,0,1-.2.82,1.26,1.26,0,0,1-.57.5,1.07,1.07,0,0,1,.64.48,1.67,1.67,0,0,1,.22.9,1.79,1.79,0,0,1-.49,1.37,2,2,0,0,1-1.43.46Zm1.25-3.63h.64a.67.67,0,0,0,.74-.77.93.93,0,0,0-.17-.61.74.74,0,0,0-.55-.18h-.66Zm0,.92V76.2h.79A.62.62,0,0,0,53,76a.89.89,0,0,0,.17-.6c0-.56-.2-.85-.6-.86Z"/><path class="cls-1" d="M59.53,74.54H57.59V76.2h2.3v1H56.35V71h3.53v1H57.59v1.47h1.94Z"/><path class="cls-1" d="M64.27,75.61a.78.78,0,0,0-.19-.58,2.2,2.2,0,0,0-.7-.41A3.18,3.18,0,0,1,62,73.79a1.7,1.7,0,0,1-.4-1.13,1.59,1.59,0,0,1,.55-1.27,2.27,2.27,0,0,1,2.41-.24,1.64,1.64,0,0,1,.69.69,2.05,2.05,0,0,1,.24,1H64.29a1,1,0,0,0-.19-.67.65.65,0,0,0-.53-.23.66.66,0,0,0-.51.2.76.76,0,0,0-.18.53.66.66,0,0,0,.2.46,2.45,2.45,0,0,0,.72.43,3.07,3.07,0,0,1,1.31.81,1.79,1.79,0,0,1,.41,1.23A1.63,1.63,0,0,1,65,76.87a2,2,0,0,1-1.39.46,2.33,2.33,0,0,1-1.09-.25,1.82,1.82,0,0,1-.77-.71,2.14,2.14,0,0,1-.27-1.1h1.24a1.19,1.19,0,0,0,.21.79.86.86,0,0,0,.68.24C64.05,76.3,64.27,76.07,64.27,75.61Z"/><path class="cls-1" d="M71.4,72.05H69.88v5.19H68.63V72.05h-1.5V71H71.4Z"/><path class="cls-1" d="M72.39,78.82l-.64-.34.16-.3a2.31,2.31,0,0,0,.28-1v-1h1v.86A2.49,2.49,0,0,1,73,78,2.51,2.51,0,0,1,72.39,78.82Z"/><path class="cls-1" d="M81.53,74.54H79.59V76.2h2.29v1H78.35V71h3.53v1H79.59v1.47h1.94Z"/><path class="cls-1" d="M85.67,75.53l1-4.53H88.1l-1.78,6.24H85L83.26,71h1.38Z"/><path class="cls-1" d="M92.36,76H90.67l-.33,1.27H89L91,71h1.13L94,77.24H92.69Zm-1.42-1.06h1.15l-.58-2.22Z"/><path class="cls-1" d="M95.67,76.66a.65.65,0,0,1,.18-.48.63.63,0,0,1,.48-.19.61.61,0,0,1,.47.19.65.65,0,0,1,.18.48.62.62,0,0,1-.65.65.65.65,0,0,1-.48-.18A.64.64,0,0,1,95.67,76.66Zm1.16-1.34h-1L95.69,71H97Z"/><path class="cls-2" d="M63.29,0A20.82,20.82,0,0,0,42.62,21,20.68,20.68,0,1,0,84,21,20.83,20.83,0,0,0,63.29,0Zm12,29.35a3,3,0,0,1-2.92,2.83c-1.77,0-3.55.11-5.32.26a28.48,28.48,0,0,0-3.17.58A1.41,1.41,0,0,1,62,32.17a54.39,54.39,0,0,0-4.88-7.73c-1-1.33-1.79-2.76-2.67-4.16-.15-.23-.26-.42-.6-.33s-.57-.17-.55-.6,0-.65-.47-.88a2.24,2.24,0,0,1-.72-1.1c-.3-.72-.54-1.47-.77-2.22-.29-1,0-1.41.89-1.79.69-.28,1.33-.67,2-1,.91-.46,1.81-.93,2.72-1.37s1.56-.73,2.35-1.07,1.67-.68,2.51-1c.39-.16.62,0,.79.37.27.58.57,1.14.87,1.71l.09,0c1,2.39,2.06,4.78,3.11,7.17.38.86.8,1.7,1.19,2.56A12.39,12.39,0,0,0,68.51,22a4.05,4.05,0,0,0,1,1.19c1.35,1,2.74,1.9,4.15,2.79A3.1,3.1,0,0,1,75.26,29.35Z"/><path class="cls-1" d="M4.11,52.44a15.44,15.44,0,0,0,2.24,1.63,13.35,13.35,0,0,1,2.91,2.3,4.57,4.57,0,0,1,1.12,3C10.38,62.2,8.12,64,5,64a11.21,11.21,0,0,1-4.22-.7.49.49,0,0,1-.31-.37C.27,61.78.11,60.4,0,59.22a.49.49,0,0,1,.37-.52h0A.48.48,0,0,1,1,59a13.45,13.45,0,0,0,1.13,2,3.5,3.5,0,0,0,3.24,1.52,2.11,2.11,0,0,0,2.4-2.22c0-1.54-1.16-2.37-3.24-3.81a12.18,12.18,0,0,1-3.12-2.65,4.21,4.21,0,0,1-.88-2.76c0-2.6,2.12-4.37,5.17-4.37a9.26,9.26,0,0,1,4.14.94.49.49,0,0,1,.28.42c0,.62,0,1.2,0,1.73s0,1,0,1.53a.5.5,0,0,1-.45.47h0a.49.49,0,0,1-.5-.31,8.14,8.14,0,0,0-1.22-2.25,2.81,2.81,0,0,0-2.28-1.16A2.38,2.38,0,0,0,3.2,50.6,2.42,2.42,0,0,0,4.11,52.44Z"/><path class="cls-1" d="M20.14,51.83c0-.85,0-1.7-.07-2.43-.07-.95-.21-1.14-1.3-1.14a3.06,3.06,0,0,0-1.22.19,3.21,3.21,0,0,0-1.28.78,4.53,4.53,0,0,0-1,1.69.4.4,0,0,1-.43.24l-.23,0a.39.39,0,0,1-.32-.41c.08-1.22.16-2.21.25-3.32A.4.4,0,0,1,15,47c.76.05,1.47.05,2.29.05H26c.82,0,1.53,0,2.29-.05a.4.4,0,0,1,.42.37c.09,1.11.17,2.1.25,3.32a.39.39,0,0,1-.32.41l-.23,0a.4.4,0,0,1-.43-.24,4.53,4.53,0,0,0-1-1.69,3.21,3.21,0,0,0-1.28-.78,3.06,3.06,0,0,0-1.22-.19c-1.09,0-1.23.19-1.3,1.14-.07.73-.07,1.58-.07,2.43v6.62c0,.82,0,1.74,0,2.55s.18,1.46,1.09,1.83a.41.41,0,0,1,.25.41h0a.4.4,0,0,1-.41.36c-1-.05-1.95-.05-2.47-.05s-1.45,0-2.45.05a.4.4,0,0,1-.41-.36h0a.4.4,0,0,1,.25-.41c.91-.37,1-.88,1.09-1.83s.05-1.73.05-2.55Z"/><path class="cls-1" d="M37.31,46.63H38a.41.41,0,0,1,.37.26l4.1,11.56c.28.75.6,1.74,1,2.52a4.42,4.42,0,0,0,1.31,1.85.37.37,0,0,1,.16.36v.06a.4.4,0,0,1-.41.36c-1-.05-1.6-.05-2.19-.05-.74,0-1.36,0-2.28.05a.4.4,0,0,1-.41-.36v0a.39.39,0,0,1,.2-.39.8.8,0,0,0,.51-.78,12.91,12.91,0,0,0-.86-3.16.4.4,0,0,0-.37-.27H34.8a.39.39,0,0,0-.37.27,9.74,9.74,0,0,0-.68,3,.92.92,0,0,0,.7.93.4.4,0,0,1,.24.41h0a.38.38,0,0,1-.41.35c-.74,0-1.38,0-1.88,0s-.8,0-1.35,0a.39.39,0,0,1-.42-.35v-.07a.38.38,0,0,1,.15-.36A3.78,3.78,0,0,0,32,61c.33-.75.72-1.79,1-2.57L36.94,46.9A.39.39,0,0,1,37.31,46.63ZM35.55,57.17h2.82a.4.4,0,0,0,.37-.53l-1.45-4.17a.39.39,0,0,0-.74,0l-1.37,4.17A.39.39,0,0,0,35.55,57.17Z"/><path class="cls-1" d="M62.85,58.45c0,.82,0,1.74,0,2.55s.18,1.45.89,1.82a.41.41,0,0,1,.22.41h0a.4.4,0,0,1-.42.37c-.95-.05-1.69-.05-2.2-.05s-1.27,0-2.23.05a.41.41,0,0,1-.42-.37h0a.41.41,0,0,1,.22-.41c.71-.37.83-.88.89-1.82s0-1.73,0-2.55V56.07a.41.41,0,0,0-.41-.41H53.3a.4.4,0,0,0-.4.41v2.38c0,.82,0,1.74,0,2.55s.19,1.45.89,1.82a.44.44,0,0,1,.23.41h0a.42.42,0,0,1-.43.37c-1-.05-1.69-.05-2.2-.05s-1.27,0-2.23.05a.41.41,0,0,1-.42-.37h0a.41.41,0,0,1,.22-.41c.71-.37.83-.88.89-1.82s0-1.73,0-2.55V52.16c0-.83,0-1.75,0-2.55s-.18-1.45-.89-1.82a.41.41,0,0,1-.22-.41h0A.41.41,0,0,1,49.2,47c1,.05,1.71.05,2.23.05s1.25,0,2.2-.05a.42.42,0,0,1,.43.37h0a.44.44,0,0,1-.23.41c-.7.37-.82.88-.89,1.82s0,1.72,0,2.55V53.8a.41.41,0,0,0,.4.42h6.18a.42.42,0,0,0,.41-.42V52.16c0-.83,0-1.75,0-2.55s-.18-1.45-.89-1.82a.41.41,0,0,1-.22-.41h0a.41.41,0,0,1,.42-.37c1,.05,1.71.05,2.23.05s1.25,0,2.2-.05a.4.4,0,0,1,.42.37h0a.41.41,0,0,1-.22.41c-.71.37-.83.88-.89,1.82s0,1.72,0,2.55Z"/><path class="cls-1" d="M72.44,58.45c0,.82,0,1.74,0,2.55s.18,1.45.89,1.82a.41.41,0,0,1,.22.41h0a.41.41,0,0,1-.42.37c-1-.05-1.69-.05-2.2-.05s-1.27,0-2.23.05a.41.41,0,0,1-.42-.37h0a.41.41,0,0,1,.22-.41c.71-.37.83-.88.89-1.82s0-1.73,0-2.55V52.16c0-.83,0-1.75,0-2.55s-.18-1.45-.89-1.82a.41.41,0,0,1-.22-.41h0a.41.41,0,0,1,.42-.37c1,.05,1.71.05,2.23.05s1.25,0,2.2-.05a.41.41,0,0,1,.42.37h0a.41.41,0,0,1-.22.41c-.71.37-.83.88-.89,1.82s0,1.72,0,2.55Zm3.41-4.71a.42.42,0,0,0,0,.51c1.7,2.63,3.26,4.69,5,6.87a7.38,7.38,0,0,0,2.1,2,.41.41,0,0,1,.21.36v0a.42.42,0,0,1-.3.4,4,4,0,0,1-.89.08,5.42,5.42,0,0,1-4.59-2.43,55.5,55.5,0,0,1-4.44-6.22.42.42,0,0,1,0-.51l2.44-2.53c2.14-2.22,2.47-3.07,2.47-3.64a.9.9,0,0,0-.54-.85.41.41,0,0,1-.2-.4h0a.4.4,0,0,1,.42-.37c.86.05,1.88.05,2.39.05s.89,0,1.45,0a.41.41,0,0,1,.43.37v0a.44.44,0,0,1-.16.37,23.5,23.5,0,0,0-1.89,1.85c-.8.8-2,2-2.54,2.6Z"/><path class="cls-1" d="M90.8,58.45c0,.82,0,1.74,0,2.55s.18,1.45.89,1.82a.41.41,0,0,1,.22.41h0a.41.41,0,0,1-.42.37c-1-.05-1.69-.05-2.2-.05s-1.27,0-2.23.05a.4.4,0,0,1-.42-.37h0a.41.41,0,0,1,.22-.41c.7-.37.82-.88.89-1.82s0-1.73,0-2.55V52.16c0-.83,0-1.75,0-2.55s-.19-1.45-.89-1.82a.41.41,0,0,1-.22-.41h0a.4.4,0,0,1,.42-.37c1,.05,1.71.05,2.23.05s1.24,0,2.2-.05a.41.41,0,0,1,.42.37h0a.41.41,0,0,1-.22.41c-.71.37-.83.88-.89,1.82s0,1.72,0,2.55Z"/><path class="cls-1" d="M111.07,59.91c0,1,0,2.4.06,3.56a.41.41,0,0,1-.29.41l-.6.2a.41.41,0,0,1-.44-.13L99.68,51.4a.4.4,0,0,0-.72.26v6.81c0,.83,0,1.75,0,2.55s.19,1.45.89,1.82a.44.44,0,0,1,.23.41h0a.4.4,0,0,1-.42.37c-.62,0-1,0-1.5,0s-.84,0-1.48,0a.41.41,0,0,1-.43-.36h0a.44.44,0,0,1,.23-.41c.7-.37.82-.88.89-1.82s0-1.72,0-2.55V52.3c0-.82,0-1.82,0-2.6-.07-1-.17-1.52-.9-1.91a.43.43,0,0,1-.22-.41h0A.41.41,0,0,1,96.7,47c.78,0,2,0,3,.05a.4.4,0,0,1,.31.14L108.84,58a.41.41,0,0,0,.72-.27V52.16c0-.83,0-1.75,0-2.55s-.18-1.45-.89-1.82a.41.41,0,0,1-.22-.41h0a.4.4,0,0,1,.43-.36c.63,0,1,.05,1.45.05s1,0,1.52-.05a.41.41,0,0,1,.43.37h0a.41.41,0,0,1-.22.41c-.71.37-.83.88-.89,1.82s-.05,1.72-.05,2.55Z"/><path class="cls-1" d="M120.32,52.44a15.44,15.44,0,0,0,2.24,1.63,13.35,13.35,0,0,1,2.91,2.3,4.57,4.57,0,0,1,1.12,3c0,2.81-2.26,4.58-5.38,4.58a11.21,11.21,0,0,1-4.22-.7.49.49,0,0,1-.31-.37c-.2-1.12-.36-2.5-.47-3.68a.49.49,0,0,1,.37-.52h0a.48.48,0,0,1,.56.27,13.45,13.45,0,0,0,1.13,2,3.5,3.5,0,0,0,3.24,1.52,2.11,2.11,0,0,0,2.4-2.22c0-1.54-1.16-2.37-3.24-3.81a12.18,12.18,0,0,1-3.12-2.65,4.21,4.21,0,0,1-.88-2.76c0-2.6,2.12-4.37,5.17-4.37a9.26,9.26,0,0,1,4.14.94.49.49,0,0,1,.28.42c0,.62,0,1.2,0,1.73s0,1,0,1.53a.5.5,0,0,1-.45.47h0a.49.49,0,0,1-.5-.31,8.14,8.14,0,0,0-1.22-2.25,2.81,2.81,0,0,0-2.28-1.16,2.38,2.38,0,0,0-2.43,2.55A2.42,2.42,0,0,0,120.32,52.44Z"/></g></g></svg>