<svg xmlns="http://www.w3.org/2000/svg" viewBox="0 0 303.31 216.87"><defs><style>.cls-1{fill:#1e4493;}.cls-1,.cls-13,.cls-2{stroke:#000;}.cls-1,.cls-13,.cls-2,.cls-4,.cls-5,.cls-6{stroke-miterlimit:10;}.cls-2{fill:#595a5a;}.cls-3{fill:#231f20;}.cls-13,.cls-4,.cls-6{fill:none;}.cls-4{stroke:#1173bb;}.cls-5{fill:#229bd0;stroke:#144b8d;}.cls-6{stroke:#27629c;}.cls-7{fill:#f7fbf5;}.cls-8{fill:#fff;}.cls-9{fill:#c4e7ea;}.cls-10{fill:#f19d20;}.cls-11{fill:#343434;}.cls-12{fill:#c2c1c0;}.cls-14{fill:#ad8a51;}.cls-15{fill:#694f2a;}.cls-16{fill:#f04c3c;}</style></defs><g id="Layer_2" data-name="Layer 2"><g id="Fireplace"><path class="cls-1" d="M57,60.2l-.48-2a1.79,1.79,0,0,0-1.73-1.38L44,56.8a1.8,1.8,0,0,0-1.74,1.36l-.51,2h0V84.08a1.5,1.5,0,0,0,1.5,1.49H55.51A1.5,1.5,0,0,0,57,84.08V60.2Z"/><ellipse class="cls-2" cx="49.18" cy="56.67" rx="7.11" ry="0.75"/><ellipse class="cls-3" cx="45.05" cy="56.63" rx="1.09" ry="0.29"/><path class="cls-3" d="M45.92,56.68a7.85,7.85,0,0,0,2.6.38c1.14,0,1.38-.25,1.38-.36s.17-.25-1-.25A15,15,0,0,0,45.92,56.68Zm2.1,0c0-.13.31-.24.69-.24s.69.11.69.24-.31.25-.69.25S48,56.87,48,56.73Zm-1.3,0c0-.08.19-.15.42-.15s.41.07.41.15-.18.14-.41.14S46.72,56.83,46.72,56.75Z"/><line class="cls-4" x1="42.01" y1="79.23" x2="56.8" y2="79.23"/><line class="cls-4" x1="42.01" y1="66.82" x2="56.8" y2="66.82"/><circle class="cls-5" cx="49.12" cy="63.92" r="3.01"/><path class="cls-6" d="M42.05,62s5.7-5.23,14.73,0"/><rect class="cls-7" x="44.61" y="69.15" width="9.98" height="2.38"/><rect class="cls-7" x="44.61" y="72.48" width="9.98" height="4.59"/><path d="M159.65,66a91.55,91.55,0,0,0,2.57-9.77,34,34,0,0,0-.18-7.74c0-.49-.91-1.16-1.51-1.31-2-.5-4.07-.7-6.06-1.21a7.18,7.18,0,0,1-5.78-6.37,125.39,125.39,0,0,1-1.12-14.72c0-5.65.44-11.31,1-16.95.41-4.63,3-6.85,7.65-7,12.3-.36,24.6-.94,36.9-.93,10.14,0,20.28,1,30.42,1,5.53,0,8.41,3.1,10.54,7.4a11.69,11.69,0,0,1,1.11,5c-.07,7.27.09,14.6-.71,21.8a12.64,12.64,0,0,1-7.55,10.61,15.4,15.4,0,0,1-5.2.72c-11.39.51-22.78,1-33.58,1.42C187,49.5,185.9,50.8,185,52.22s-1.35,2.72-2.08,4.05c-.36.67-.71,1.55-1.31,1.86-2.22,1.14-3.81,3.11-6.56,3.66-4.59.91-9,2.62-13.54,4A11.56,11.56,0,0,1,159.65,66Zm3.41-20.09c.62,1.65.79,3.8,1.95,4.83,2.56,2.27,5.61,4,8.89,6.2,1.91-2.55,4-5.41,6.18-8.26.59-.79,1.12-2.1,1.83-2.21a43.9,43.9,0,0,1,5.74-.05c10.87-.31,21.75-.73,32.63-.95,5.09-.1,8-3.35,8.43-7.83.88-8.48,1.23-17,1.3-25.57.05-6.55-2.72-9-9.25-9.27-4.85-.16-9.79.43-14.56-.23-16.27-2.23-32.52-.63-48.77-.22-5.47.14-7.13,1.76-7.53,7.09-.46,6.28-1,12.57-.92,18.85A71.84,71.84,0,0,0,150.52,40,5.17,5.17,0,0,0,155,44.39Zm7.21,13.67c1-.51,2.29-1.46.87-2.85A65.39,65.39,0,0,0,165,51.89l-1,.73c.33,1.13.33,2.62,1.07,3.33A38,38,0,0,0,170.27,59.56Zm-1,.82-4.32-3c-.48.71-1.53,1.69-1.34,2.08A5.77,5.77,0,0,0,166,62.15C166.56,62.39,167.71,61.27,169.25,60.38Z"/><path class="cls-8" d="M170.27,59.56A38,38,0,0,1,165.12,56c-.74-.71-.74-2.2-1.07-3.33l1-.73a65.39,65.39,0,0,1,6.11,4.82C172.56,58.1,171.32,59.05,170.27,59.56Z"/><path class="cls-8" d="M169.25,60.38c-1.54.89-2.69,2-3.22,1.77a5.77,5.77,0,0,1-2.44-2.67c-.19-.39.86-1.37,1.34-2.08Z"/><path class="cls-3" d="M168.42,14.13a.86.86,0,0,0-.21-.63,2.43,2.43,0,0,0-.77-.44,3.58,3.58,0,0,1-1.48-.91,1.87,1.87,0,0,1-.44-1.23,1.7,1.7,0,0,1,.61-1.38A2.26,2.26,0,0,1,167.67,9a2.29,2.29,0,0,1,1.12.26,1.75,1.75,0,0,1,.75.75,2.18,2.18,0,0,1,.27,1.09h-1.37a1.18,1.18,0,0,0-.2-.73.74.74,0,0,0-.59-.25.73.73,0,0,0-.56.21.85.85,0,0,0-.2.58.69.69,0,0,0,.22.5,2.61,2.61,0,0,0,.8.47,3.39,3.39,0,0,1,1.44.89,2,2,0,0,1,.45,1.33,1.76,1.76,0,0,1-.56,1.38,2.21,2.21,0,0,1-1.54.5,2.65,2.65,0,0,1-1.2-.27,2.11,2.11,0,0,1-.85-.77,2.31,2.31,0,0,1-.3-1.19h1.38a1.31,1.31,0,0,0,.22.85,1,1,0,0,0,.75.27C168.18,14.89,168.42,14.63,168.42,14.13Z"/><path class="cls-3" d="M175.12,10.25h-1.68v5.66h-1.38V10.25h-1.65V9.11h4.71Z"/><path class="cls-3" d="M178.59,14.52h-1.87l-.36,1.39H174.9L177,9.11h1.26l2.13,6.8H179ZM177,13.37h1.27L177.65,11Z"/><path class="cls-3" d="M185.83,15.91h-1.37V13h-2v2.91h-1.37V9.11h1.37v2.75h2V9.11h1.37Z"/><path class="cls-3" d="M188.85,13.29l-.55.68v1.94h-1.37V9.11h1.37v3l.44-.74L190,9.11h1.69l-1.95,3,2,3.81h-1.63Z"/><path class="cls-3" d="M193.66,15.91h-1.38V9.11h1.38Z"/><path class="cls-3" d="M199.56,15.91h-1.37l-2-4.46v4.46h-1.37V9.11h1.37l2,4.47V9.11h1.36Z"/><path class="cls-3" d="M203.54,14.13a.86.86,0,0,0-.21-.63,2.51,2.51,0,0,0-.78-.44,3.6,3.6,0,0,1-1.47-.91,1.83,1.83,0,0,1-.45-1.23,1.72,1.72,0,0,1,.61-1.38,2.56,2.56,0,0,1,2.67-.26,1.81,1.81,0,0,1,.75.75,2.18,2.18,0,0,1,.27,1.09h-1.37a1.11,1.11,0,0,0-.21-.73.72.72,0,0,0-.58-.25.73.73,0,0,0-.56.21.8.8,0,0,0-.2.58.69.69,0,0,0,.22.5,2.61,2.61,0,0,0,.8.47,3.39,3.39,0,0,1,1.44.89,2,2,0,0,1,.45,1.33,1.76,1.76,0,0,1-.56,1.38,2.21,2.21,0,0,1-1.54.5,2.65,2.65,0,0,1-1.2-.27,2.11,2.11,0,0,1-.85-.77,2.31,2.31,0,0,1-.3-1.19h1.37a1.31,1.31,0,0,0,.23.85.93.93,0,0,0,.75.27C203.3,14.89,203.54,14.63,203.54,14.13Z"/><path class="cls-3" d="M209.47,15.91H208.1V9.11h1.37Z"/><path class="cls-3" d="M213.5,14.13a.82.82,0,0,0-.22-.63,2.32,2.32,0,0,0-.77-.44,3.6,3.6,0,0,1-1.47-.91,1.83,1.83,0,0,1-.45-1.23,1.72,1.72,0,0,1,.61-1.38,2.56,2.56,0,0,1,2.67-.26,1.87,1.87,0,0,1,.75.75,2.17,2.17,0,0,1,.26,1.09h-1.36a1.11,1.11,0,0,0-.21-.73.72.72,0,0,0-.58-.25.73.73,0,0,0-.56.21.81.81,0,0,0-.21.58.7.7,0,0,0,.23.5,2.53,2.53,0,0,0,.79.47,3.37,3.37,0,0,1,1.45.89,2,2,0,0,1,.45,1.33,1.73,1.73,0,0,1-.57,1.38,2.17,2.17,0,0,1-1.53.5,2.65,2.65,0,0,1-1.2-.27,2,2,0,0,1-.85-.77,2.32,2.32,0,0,1-.31-1.19h1.38a1.31,1.31,0,0,0,.23.85.93.93,0,0,0,.75.27C213.26,14.89,213.5,14.63,213.5,14.13Z"/><path class="cls-3" d="M171.23,26.75a.74.74,0,0,1,1.24-.52.72.72,0,0,1,.2.52.69.69,0,0,1-.2.51.78.78,0,0,1-1,0A.66.66,0,0,1,171.23,26.75Zm1.27-1.45h-1.1l-.15-4.71h1.41Z"/><path class="cls-3" d="M181.54,24.88a4.19,4.19,0,0,1-.26,1.39,2,2,0,0,1-.62.92,1.41,1.41,0,0,1-.89.3,1,1,0,0,1-1-.63,1.12,1.12,0,0,1-1,.61,1,1,0,0,1-.91-.58,2.69,2.69,0,0,1-.24-1.51A4.05,4.05,0,0,1,177,24a2.45,2.45,0,0,1,.65-.93,1.34,1.34,0,0,1,.87-.32,1.59,1.59,0,0,1,1,.31l.25.19-.21,2.7a1.31,1.31,0,0,0,0,.57.3.3,0,0,0,.3.19c.23,0,.42-.17.56-.52a3.62,3.62,0,0,0,.25-1.3,4.09,4.09,0,0,0-.54-2.49,2,2,0,0,0-1.76-.88,2.1,2.1,0,0,0-1.81,1,5,5,0,0,0-.75,2.69,4.22,4.22,0,0,0,.53,2.56,2,2,0,0,0,1.79.89,3.23,3.23,0,0,0,.68-.08,2.78,2.78,0,0,0,.62-.23l.16.72a2,2,0,0,1-.66.3,2.85,2.85,0,0,1-.82.11A3.1,3.1,0,0,1,176.4,29a2.94,2.94,0,0,1-1.09-1.46,6.09,6.09,0,0,1-.32-2.32,6.31,6.31,0,0,1,.49-2.32,3.76,3.76,0,0,1,1.22-1.57,2.94,2.94,0,0,1,1.75-.56,2.88,2.88,0,0,1,1.69.5,3,3,0,0,1,1.08,1.43A5.67,5.67,0,0,1,181.54,24.88Zm-3.85.5a2.42,2.42,0,0,0,.09.93c.08.22.21.32.38.32a.37.37,0,0,0,.29-.19,1.48,1.48,0,0,0,.23-.52l.17-2.3-.22,0A.69.69,0,0,0,178,24,3.66,3.66,0,0,0,177.69,25.38Z"/><path class="cls-3" d="M186,25.47h-.63l-.27,1.92h-.82l.28-1.92h-.86v-.8h1l.19-1.33H184v-.81h1l.28-1.94h.82l-.29,1.94h.63l.29-1.94h.81l-.29,1.94h.84v.81h-1l-.2,1.33h.85v.8h-1l-.28,1.92h-.81Zm-.51-.8h.63l.19-1.33h-.63Z"/><path class="cls-3" d="M192.91,25.6a1.11,1.11,0,0,0-.16-.62,1.49,1.49,0,0,0-.53-.42,4.15,4.15,0,0,1-1.05-.61,1.93,1.93,0,0,1-.52-.66,2.23,2.23,0,0,1-.16-.9,1.89,1.89,0,0,1,.43-1.28,1.68,1.68,0,0,1,1.13-.6v-1h.71v1a1.63,1.63,0,0,1,1.09.71,2.54,2.54,0,0,1,.39,1.46h-1.32a1.65,1.65,0,0,0-.17-.84.47.47,0,0,0-.41-.28.44.44,0,0,0-.39.22,1,1,0,0,0-.14.6A1,1,0,0,0,192,23a1.67,1.67,0,0,0,.55.45,5.11,5.11,0,0,1,1.08.65,2,2,0,0,1,.49.66,2.34,2.34,0,0,1,.16.88,1.92,1.92,0,0,1-.42,1.28,1.72,1.72,0,0,1-1.16.59v.93H192v-.93a1.75,1.75,0,0,1-1.24-.69,2.37,2.37,0,0,1-.44-1.52h1.32a1.65,1.65,0,0,0,.18.85.56.56,0,0,0,.53.29.51.51,0,0,0,.44-.21A.93.93,0,0,0,192.91,25.6Z"/><path class="cls-3" d="M198.09,27.39h-1.37v-6.8h1.37Z"/><path class="cls-3" d="M205.43,27.39h-1.37l-2-4.46v4.46h-1.37v-6.8h1.37l2,4.46V20.59h1.36Z"/><path class="cls-3" d="M208.34,22.68l-.6-.37a3,3,0,0,0,.34-1.28v-.82h1V21a2.37,2.37,0,0,1-.22.92A2.43,2.43,0,0,1,208.34,22.68Z"/><path class="cls-3" d="M172.53,37.48h-1.87l-.36,1.39h-1.46l2.13-6.8h1.26l2.13,6.8H172.9ZM171,36.33h1.27l-.64-2.42Z"/><path class="cls-3" d="M179.24,36.34l.64-4.27h1.36L180,38.87h-1.38l-.79-4-.79,4h-1.38l-1.21-6.8h1.36l.64,4.27.8-4.27h1.16Z"/><path class="cls-3" d="M185.49,35.92h-2.14v1.81h2.54v1.14H182v-6.8h3.9v1.14h-2.53v1.61h2.14Z"/><path class="cls-3" d="M189.55,37.08a.85.85,0,0,0-.21-.62,2.49,2.49,0,0,0-.78-.45,3.6,3.6,0,0,1-1.47-.9,1.84,1.84,0,0,1-.45-1.24,1.75,1.75,0,0,1,.61-1.38A2.34,2.34,0,0,1,188.8,32a2.29,2.29,0,0,1,1.12.27,1.78,1.78,0,0,1,.75.74,2.21,2.21,0,0,1,.27,1.1h-1.37a1.11,1.11,0,0,0-.21-.73.69.69,0,0,0-.58-.25.73.73,0,0,0-.56.21.76.76,0,0,0-.2.57.7.7,0,0,0,.22.51,2.53,2.53,0,0,0,.79.47,3.36,3.36,0,0,1,1.45.88,2,2,0,0,1,.45,1.33,1.76,1.76,0,0,1-.56,1.39,2.26,2.26,0,0,1-1.54.5,2.65,2.65,0,0,1-1.2-.27,2,2,0,0,1-.85-.78,2.27,2.27,0,0,1-.31-1.19h1.38a1.32,1.32,0,0,0,.23.86.92.92,0,0,0,.75.26C189.31,37.84,189.55,37.59,189.55,37.08Z"/><path class="cls-3" d="M196.63,36.08A3.16,3.16,0,0,1,196,38.2a2.22,2.22,0,0,1-1.79.76,2.25,2.25,0,0,1-1.8-.75,3.07,3.07,0,0,1-.66-2.1V35a3.36,3.36,0,0,1,.64-2.19,2.46,2.46,0,0,1,3.6,0,3.34,3.34,0,0,1,.66,2.17Zm-1.38-1.14a2.86,2.86,0,0,0-.26-1.37,1,1,0,0,0-1.62,0,2.55,2.55,0,0,0-.27,1.32v1.21a2.6,2.6,0,0,0,.26,1.31.91.91,0,0,0,.83.43.87.87,0,0,0,.79-.42,2.37,2.37,0,0,0,.27-1.28Z"/><path class="cls-3" d="M199.41,32.07,200.69,37,202,32.07h1.8v6.8h-1.38V37l.12-2.84-1.36,4.68h-.93l-1.36-4.68L199,37v1.84h-1.38v-6.8Z"/><path class="cls-3" d="M208.38,35.92h-2.14v1.81h2.53v1.14h-3.9v-6.8h3.89v1.14h-2.52v1.61h2.14Z"/><path class="cls-3" d="M209.57,38.23a.72.72,0,0,1,.2-.52.71.71,0,0,1,.53-.21.66.66,0,0,1,.51.21.68.68,0,0,1,.2.52.72.72,0,1,1-1.44,0Zm1.28-1.46h-1.1l-.16-4.7H211Z"/><circle class="cls-9" cx="126.26" cy="122.09" r="36.38"/><circle class="cls-9" cx="124.38" cy="65.43" r="22.79"/><path d="M41.56,83.06l10.06,3.12.44-.78c-1-1.55-2-3.06-2.83-4.69a9.58,9.58,0,0,1-.43-2.78,15.09,15.09,0,0,1,1.86,1.89c1.06,1.49,2,3.08,3.26,5.05,1.66-3.08,3-5.62,4.39-8.15l.76.24a5.94,5.94,0,0,1,0,1.84,15,15,0,0,1-1.23,2.39c-3,5.26-2.77,6.66,1.27,11.23A55.19,55.19,0,0,0,80,106.78c5.23,2.16,10.47,4.29,15.68,6.5.53.22.87.88,1.3,1.33-.62,0-1.32.3-1.84.09-9.72-4-19.94-7-28.46-13.31-4.11-3-7.31-7.3-11.06-10.85a14.76,14.76,0,0,0-4.71-3c-2.49-1-5.19-1.37-7.73-2.23-.83-.28-1.44-1.21-2.14-1.84Z"/><path d="M154.77,116.52a16.66,16.66,0,0,1,2-1.12c7-2.74,14.06-5.48,21.11-8.16,6.31-2.39,10.4-7.2,13.89-12.66,2.27-3.56,4.41-7.2,6.61-10.81a6,6,0,0,0,.17-6.52,23.9,23.9,0,0,1-1.38-3.86l.89-.41c.65,1.19,1.31,2.38,2.26,4.13l2.31-5.71.95.22c-.28,1.32-.59,2.64-.83,4-1.8,9.81-8.21,17.15-13.63,24.93-3.42,4.9-8.8,7.51-14.39,9.56-5.82,2.13-11.55,4.51-17.33,6.76a17.8,17.8,0,0,1-2.34.59Z"/><path d="M126.7,105.08c2.08,0,3.48,1.13,3.51,2.93a4.17,4.17,0,0,1-4,4.12,3.1,3.1,0,0,1-3.12-3.37A3.76,3.76,0,0,1,126.7,105.08Zm2.55,3.6-.07-.94c-.76-.48-1.92-1.52-2.2-1.33a7.75,7.75,0,0,0-2.19,2.77c-.1.2,1.28,1.59,1.59,1.47A14.65,14.65,0,0,0,129.25,108.68Z"/><path d="M124.18,124.42a3.92,3.92,0,0,1,4-3.6c2-.06,2.5,1.12,2.52,2.77a4.29,4.29,0,0,1-4,4.22C125.12,127.77,124.16,126.48,124.18,124.42Zm1.44,1c.35.23.93.93,1.61,1,1.14.17,2.66-1.65,2.33-2.86a2.17,2.17,0,0,0-1.61-1.32C126.46,122.26,125.59,123.2,125.62,125.38Z"/><path d="M124.93,139.26a3.26,3.26,0,0,1,3.28-3.23,2.66,2.66,0,0,1,2.65,2.6c0,1.94-2.15,4.39-3.8,4.28S124.87,141.54,124.93,139.26Zm3.78-2a2.6,2.6,0,0,0-2.52,2.74c0,.46.63,1,1,1.5a15.52,15.52,0,0,0,2.36-2.52C129.71,138.7,129,137.81,128.71,137.29Z"/><path d="M129.25,108.68a14.65,14.65,0,0,1-2.87,2c-.31.12-1.69-1.27-1.59-1.47a7.75,7.75,0,0,1,2.19-2.77c.28-.19,1.44.85,2.2,1.33Z"/><path d="M125.62,125.38c0-2.18.84-3.12,2.33-3.15a2.17,2.17,0,0,1,1.61,1.32c.33,1.21-1.19,3-2.33,2.86C126.55,126.31,126,125.61,125.62,125.38Z"/><path d="M128.71,137.29c.26.52,1,1.41.81,1.72a15.52,15.52,0,0,1-2.36,2.52c-.34-.51-1-1-1-1.5A2.6,2.6,0,0,1,128.71,137.29Z"/><path d="M137.74,70.24c-.36,9.94-10.81,14.56-18.59,10.31-2.18-1.19-5-7.28-4.31-9.42.12-.36,1.39-.71,1.92-.51a28.68,28.68,0,0,0,14.29,1.51A47.13,47.13,0,0,0,137.74,70.24ZM117,72.86a7.19,7.19,0,0,0,6.55,7.48c6.35.84,10.53-1.67,12-7.45-.73,1.1-1.26,2.71-2,2.79a80,80,0,0,1-12.93.65C119.43,76.26,118.24,74.07,117,72.86Zm3,.72c2,2.49,11.09,2.47,12.71,0Z"/><path class="cls-8" d="M117,72.86c1.22,1.21,2.41,3.4,3.71,3.47a80,80,0,0,0,12.93-.65c.69-.08,1.22-1.69,2-2.79-1.51,5.78-5.69,8.29-12,7.45A7.19,7.19,0,0,1,117,72.86Z"/><path class="cls-8" d="M120,73.58h12.71C131.06,76.05,122,76.07,120,73.58Z"/><circle cx="118.31" cy="59.37" r="2.3"/><circle cx="132.74" cy="59.37" r="2.3"/><polygon class="cls-10" points="124.08 65.07 123.83 67.48 130.19 66.9 136.54 66.33 130.43 64.5 124.32 62.66 124.08 65.07"/><path class="cls-11" d="M132.14,39.81l-.83-2.73-2.6.78-9.05-30a5.23,5.23,0,0,0-6.51-3.5L97.53,9A5.23,5.23,0,0,0,94,15.54l9,30-2.65.8.82,2.73A3.85,3.85,0,0,0,106,51.68l23.53-7.09A3.84,3.84,0,0,0,132.14,39.81Z"/><rect class="cls-12" x="98.39" y="24.14" width="26.84" height="7.53" transform="translate(-3.24 34.52) rotate(-17.3)"/><path class="cls-13" d="M113.4,53.31a25.11,25.11,0,0,1,6-.66A15.33,15.33,0,0,0,117,55.19,36.38,36.38,0,0,1,122.28,54"/><path class="cls-13" d="M130.14,50.62a25.11,25.11,0,0,1,5.79,1.83,14.78,14.78,0,0,0-3.21,1.37,35.48,35.48,0,0,1,5.28,1"/><path class="cls-14" d="M206.55,208.75s20.3-5.58,23.34-16.24l12.18.51s-10.66,14.72-24.36,21.82Z"/><rect class="cls-15" y="208.75" width="246.64" height="8.12" rx="3.49"/><path class="cls-11" d="M267.44,63.61a96.79,96.79,0,0,0-90.39,62.18,20.24,20.24,0,0,1-14.6,12.61c-27.2,5.92-45.44,4-57.26.19a27.66,27.66,0,0,1-19.13-26.31v-6a45.17,45.17,0,0,0-45.17,45.17v8.12H40.6v9.81a30.11,30.11,0,0,0,30.11,30.11H263.22a39.92,39.92,0,0,0,39.91-39.08h.18V63.61Z"/><path class="cls-16" d="M263.89,63.61a96.79,96.79,0,0,0-90.39,62.18,20.26,20.26,0,0,1-14.6,12.61c-27.2,5.92-45.45,4-57.26.19A27.65,27.65,0,0,1,82.5,112.28v-6a45.16,45.16,0,0,0-45.16,45.17v8.12h-.29v9.81a30.11,30.11,0,0,0,30.11,30.11h192.5a39.92,39.92,0,0,0,39.91-39.08h.18V63.61Z"/><path class="cls-14" d="M43.22,208.42h243a0,0,0,0,1,0,0v8.46a0,0,0,0,1,0,0h-243a3.64,3.64,0,0,1-3.64-3.64v-1.18a3.64,3.64,0,0,1,3.64-3.64Z"/><path class="cls-8" d="M253.36,121.94a33.26,33.26,0,1,0,32.79,33.26A33,33,0,0,0,253.36,121.94Zm19,46.55c-.44,2.52-1.89,4.42-4.64,4.5s-5.63.17-8.44.41a48.28,48.28,0,0,0-5,.92,2.23,2.23,0,0,1-2.86-1.35,87.65,87.65,0,0,0-7.75-12.26c-1.53-2.11-2.84-4.38-4.24-6.59-.24-.38-.41-.67-.95-.54s-.9-.26-.87-.94a1.21,1.21,0,0,0-.74-1.41c-.54-.27-.87-1.09-1.14-1.74-.47-1.14-.86-2.33-1.22-3.51-.47-1.54,0-2.24,1.41-2.84,1.09-.45,2.1-1.06,3.15-1.59,1.44-.74,2.87-1.48,4.32-2.18,1.23-.6,2.47-1.16,3.73-1.69s2.65-1.08,4-1.61c.61-.24,1,0,1.24.6.44.91.92,1.8,1.38,2.7l.15-.07c1.64,3.8,3.27,7.59,4.93,11.38.6,1.37,1.27,2.7,1.9,4.06a17,17,0,0,0,1,2.12,6.61,6.61,0,0,0,1.54,1.88q3.22,2.31,6.59,4.42A4.93,4.93,0,0,1,272.35,168.49Z"/></g></g></svg>